<?xml version="1.0" encoding="utf-8"?>
<!-- Generator: Adobe Illustrator 22.1.0, SVG Export Plug-In . SVG Version: 6.00 Build 0)  -->
<svg version="1.1" id="Layer_1" xmlns:serif="http://www.serif.com/"
	 xmlns="http://www.w3.org/2000/svg" xmlns:xlink="http://www.w3.org/1999/xlink" x="0px" y="0px" viewBox="0 0 50 50"
	 style="enable-background:new 0 0 50 50;" xml:space="preserve">
<style type="text/css">
	.st0{fill:#4CAF50;}
</style>
<path class="st0" d="M25,0c13.8,0,25,11.2,25,25S38.8,50,25,50S0,38.8,0,25S11.2,0,25,0z M25,9.4c-4.2,0-4.8,0-6.4,0.1
	c-1.7,0.1-2.8,0.3-3.8,0.7c-1,0.4-1.9,0.9-2.8,1.8c-0.9,0.9-1.4,1.7-1.8,2.8c-0.4,1-0.7,2.1-0.7,3.8c-0.1,1.7-0.1,2.2-0.1,6.4
	s0,4.8,0.1,6.4c0.1,1.7,0.3,2.8,0.7,3.8c0.4,1,0.9,1.9,1.8,2.8c0.9,0.9,1.7,1.4,2.8,1.8c1,0.4,2.1,0.7,3.8,0.7
	c1.7,0.1,2.2,0.1,6.4,0.1s4.8,0,6.4-0.1c1.7-0.1,2.8-0.3,3.8-0.7c1-0.4,1.9-0.9,2.8-1.8c0.9-0.9,1.4-1.7,1.8-2.8
	c0.4-1,0.7-2.1,0.7-3.8c0.1-1.7,0.1-2.2,0.1-6.4s0-4.8-0.1-6.4c-0.1-1.7-0.3-2.8-0.7-3.8c-0.4-1-0.9-1.9-1.8-2.8
	c-0.9-0.9-1.7-1.4-2.8-1.8c-1-0.4-2.1-0.7-3.8-0.7C29.8,9.4,29.2,9.4,25,9.4z M25,12.2c4.2,0,4.7,0,6.3,0.1c1.5,0.1,2.4,0.3,2.9,0.5
	c0.7,0.3,1.2,0.6,1.8,1.2c0.5,0.5,0.9,1.1,1.2,1.8c0.2,0.6,0.5,1.4,0.5,2.9c0.1,1.6,0.1,2.1,0.1,6.3s0,4.7-0.1,6.3
	c-0.1,1.5-0.3,2.4-0.5,2.9c-0.3,0.7-0.6,1.2-1.2,1.8c-0.5,0.5-1.1,0.9-1.8,1.2c-0.6,0.2-1.4,0.5-2.9,0.5c-1.6,0.1-2.1,0.1-6.3,0.1
	s-4.7,0-6.3-0.1c-1.5-0.1-2.4-0.3-2.9-0.5c-0.7-0.3-1.2-0.6-1.8-1.2c-0.5-0.5-0.9-1.1-1.2-1.8c-0.2-0.6-0.5-1.4-0.5-2.9
	c-0.1-1.6-0.1-2.1-0.1-6.3s0-4.7,0.1-6.3c0.1-1.5,0.3-2.4,0.5-2.9c0.3-0.7,0.6-1.2,1.2-1.8c0.5-0.5,1.1-0.9,1.8-1.2
	c0.6-0.2,1.4-0.5,2.9-0.5C20.3,12.2,20.8,12.2,25,12.2z M25,17c-4.4,0-8,3.6-8,8s3.6,8,8,8s8-3.6,8-8S29.4,17,25,17z M25,30.2
	c-2.9,0-5.2-2.3-5.2-5.2s2.3-5.2,5.2-5.2s5.2,2.3,5.2,5.2S27.9,30.2,25,30.2z M35.2,16.7c0,1-0.8,1.9-1.9,1.9c-1,0-1.9-0.8-1.9-1.9
	s0.8-1.9,1.9-1.9C34.4,14.8,35.2,15.6,35.2,16.7z"/>
</svg>
