<?xml version="1.0" encoding="utf-8"?>
<!-- Generator: Adobe Illustrator 22.1.0, SVG Export Plug-In . SVG Version: 6.00 Build 0)  -->
<svg version="1.1" id="Layer_1" xmlns:serif="http://www.serif.com/"
	 xmlns="http://www.w3.org/2000/svg" xmlns:xlink="http://www.w3.org/1999/xlink" x="0px" y="0px" viewBox="0 0 50 50"
	 style="enable-background:new 0 0 50 50;" xml:space="preserve">
<style type="text/css">
	.st0{fill:#fff;}
</style>
<path class="st0" d="M24.9,50L24.9,50L24.9,50C24.9,50,24.9,50,24.9,50z M25.1,50L25.1,50L25.1,50L25.1,50z M24.8,50L24.8,50
	L24.8,50L24.8,50z M25.2,50L25.2,50L25.2,50L25.2,50z M24.8,50L24.8,50L24.8,50C24.8,50,24.8,50,24.8,50z M25.2,50L25.2,50L25.2,50
	C25.2,50,25.2,50,25.2,50z M25.3,50L25.3,50L25.3,50C25.3,50,25.3,50,25.3,50z M24.7,50L24.7,50L24.7,50C24.7,50,24.7,50,24.7,50z
	 M25.4,50L25.4,50L25.4,50C25.4,50,25.4,50,25.4,50z M24.6,50L24.6,50L24.6,50C24.6,50,24.6,50,24.6,50z M25.5,50L25.5,50L25.5,50
	L25.5,50z M24.5,50L24.5,50L24.5,50C24.5,50,24.5,50,24.5,50z M24.4,50L24.4,50L24.4,50C24.4,50,24.4,50,24.4,50z M25.6,50L25.6,50
	L25.6,50L25.6,50z M24.3,50L24.3,50L24.3,50L24.3,50z M25.6,50L25.6,50L25.6,50L25.6,50z M25.7,50L25.7,50L25.7,50
	C25.7,50,25.7,50,25.7,50z M24.3,50L24.3,50L24.3,50C24.3,50,24.3,50,24.3,50z M24.2,50L24.2,50L24.2,50L24.2,50L24.2,50z M25.8,50
	L25.8,50L25.8,50L25.8,50L25.8,50z M25.9,50L25.9,50L25.9,50L25.9,50z M24.1,50L24.1,50L24.1,50L24.1,50z M24,50L24,50L24,50L24,50z
	 M26,50L26,50L26,50L26,50z M23.9,50L23.9,50L23.9,50C24,50,23.9,50,23.9,50z M26,50L26,50L26,50C26.1,50,26,50,26,50z M23.8,50
	L23.8,50L23.8,50L23.8,50z M26.1,50L26.1,50L26.1,50C26.2,50,26.1,50,26.1,50z M23.8,50L23.8,50L23.8,50L23.8,50z M26.2,50L26.2,50
	L26.2,50L26.2,50z M23.7,50L23.7,50L23.7,50L23.7,50z M26.3,50L26.3,50L26.3,50L26.3,50z M26.4,50L26.4,50L26.4,50L26.4,50
	C26.4,50,26.4,50,26.4,50z M23.6,50L23.6,50L23.6,50L23.6,50C23.6,50,23.6,50,23.6,50z M26.4,50L26.4,50L26.4,50L26.4,50z M23.5,50
	L23.5,50L23.5,50L23.5,50z M23.5,50L23.5,50L23.5,50C23.5,50,23.5,50,23.5,50z M26.5,50L26.5,50L26.5,50C26.5,50,26.5,50,26.5,50z
	 M23.4,49.9L23.4,49.9L23.4,49.9L23.4,49.9C23.4,49.9,23.4,49.9,23.4,49.9z M26.6,49.9L26.6,49.9L26.6,49.9L26.6,49.9
	C26.6,49.9,26.6,49.9,26.6,49.9z M26.7,49.9L26.7,49.9L26.7,49.9C26.7,49.9,26.7,49.9,26.7,49.9z M23.3,49.9L23.3,49.9L23.3,49.9
	L23.3,49.9z M23.2,49.9L23.2,49.9L23.2,49.9C23.2,49.9,23.2,49.9,23.2,49.9z M26.8,49.9L26.8,49.9L26.8,49.9L26.8,49.9z M23.1,49.9
	L23.1,49.9L23.1,49.9C23.2,49.9,23.1,49.9,23.1,49.9z M26.8,49.9L26.8,49.9L26.8,49.9C26.9,49.9,26.8,49.9,26.8,49.9z M23.1,49.9
	L23.1,49.9L23.1,49.9L23.1,49.9z M26.9,49.9L26.9,49.9L26.9,49.9L26.9,49.9z M27,49.9L27,49.9L27,49.9L27,49.9z M23,49.9L23,49.9
	L23,49.9C23,49.9,23,49.9,23,49.9z M22.9,49.9L22.9,49.9L22.9,49.9L22.9,49.9z M27.1,49.9L27.1,49.9L27.1,49.9L27.1,49.9z
	 M22.8,49.9L22.8,49.9L22.8,49.9C22.8,49.9,22.8,49.9,22.8,49.9z M27.2,49.9L27.2,49.9L27.2,49.9C27.2,49.9,27.2,49.9,27.2,49.9z
	 M27.2,49.9L27.2,49.9L27.2,49.9C27.2,49.9,27.2,49.9,27.2,49.9z M22.8,49.9L22.8,49.9L22.8,49.9C22.8,49.9,22.8,49.9,22.8,49.9z
	 M22.7,49.9L22.7,49.9L22.7,49.9L22.7,49.9z M27.3,49.9L27.3,49.9L27.3,49.9L27.3,49.9z M21.1,49.7C9.1,47.8,0,37.5,0,25
	C0,11.2,11.2,0,25,0s25,11.2,25,25c0,12.5-9.1,22.8-21.1,24.7V32.2h5.8l1.1-7.2h-6.9v-4.7c0-2,1-3.9,4.1-3.9h3.2v-6.2
	c0,0-2.9-0.5-5.6-0.5c-5.7,0-9.4,3.5-9.4,9.7V25h-6.3v7.2h6.3V49.7z"/>
</svg>
