<?xml version="1.0" encoding="utf-8"?>
<!-- Generator: Adobe Illustrator 22.1.0, SVG Export Plug-In . SVG Version: 6.00 Build 0)  -->
<svg version="1.1" id="Layer_1" xmlns:serif="http://www.serif.com/"
	 xmlns="http://www.w3.org/2000/svg" xmlns:xlink="http://www.w3.org/1999/xlink" x="0px" y="0px" viewBox="0 0 50 50"
	 style="enable-background:new 0 0 50 50;" xml:space="preserve">
<style type="text/css">
	.st0{fill:#4CAF50;}
</style>
<path class="st0" d="M25,0c13.8,0,25,11.2,25,25S38.8,50,25,50S0,38.8,0,25S11.2,0,25,0z M20.6,38.3c11.1,0,17.1-9.2,17.1-17.1
	c0-0.3,0-0.5,0-0.8c1.2-0.8,2.2-1.9,3-3.1c-1.1,0.5-2.2,0.8-3.5,0.9c1.2-0.7,2.2-1.9,2.6-3.3c-1.2,0.7-2.4,1.2-3.8,1.5
	c-1.1-1.2-2.7-1.9-4.4-1.9c-3.3,0-6,2.7-6,6c0,0.5,0,0.9,0.2,1.4c-5-0.2-9.4-2.6-12.4-6.3c-0.5,0.9-0.8,1.9-0.8,3
	c0,2.1,1.1,3.9,2.7,5c-1,0-1.9-0.3-2.7-0.7v0.1c0,2.9,2.1,5.3,4.8,5.9c-0.5,0.1-1,0.2-1.6,0.2c-0.4,0-0.8,0-1.1-0.1
	c0.8,2.4,3,4.1,5.6,4.2c-2.1,1.6-4.7,2.6-7.5,2.6c-0.5,0-1,0-1.4-0.1C14,37.3,17.2,38.3,20.6,38.3z"/>
</svg>
